<?xml version="1.0" encoding="UTF-8" standalone="no"?>
<!DOCTYPE svg PUBLIC "-//W3C//DTD SVG 1.1//EN" "http://www.w3.org/Graphics/SVG/1.1/DTD/svg11.dtd">
<svg width="100%" height="100%" viewBox="0 0 237 237" version="1.1" xmlns="http://www.w3.org/2000/svg" xmlns:xlink="http://www.w3.org/1999/xlink" xml:space="preserve" xmlns:serif="http://www.serif.com/" style="fill-rule:evenodd;clip-rule:evenodd;stroke-linejoin:round;stroke-miterlimit:2;">
    <g transform="matrix(1.44852,0,0,1.44852,-45.9751,-53.2135)">
        <path d="M132.942,69.217C132.362,79.952 127.603,98.052 106.154,114.985C89.056,128.484 79.387,146.182 76.923,158.79C67.57,145.608 58.181,119.91 79.596,90.984C99.551,64.032 126.585,66.432 132.942,69.217Z"/>
        <path d="M137.103,69.442C136.485,80.871 131.57,100.229 108.736,118.256C92.577,131.013 83.341,147.674 81.012,159.589C80.693,161.225 79.429,162.512 77.8,162.863C76.171,163.214 74.489,162.56 73.525,161.201C63.498,147.07 53.289,119.515 76.248,88.505C97.988,59.14 127.688,62.366 134.614,65.401C136.205,66.098 137.197,67.708 137.103,69.442ZM128.483,72.217C119.814,70.489 98.971,71.818 82.945,93.464C66.759,115.326 69.441,135.198 75.683,148.427C80.315,136.585 89.544,122.791 103.573,111.715C121.62,97.467 127.157,82.408 128.483,72.217Z"/>
        <g transform="matrix(-1,1.22465e-16,-1.22465e-16,-1,225.349,241.366)">
            <path d="M132.942,69.217C132.362,79.952 127.603,98.052 106.154,114.985C89.056,128.484 79.387,146.182 76.923,158.79C67.57,145.608 58.181,119.91 79.596,90.984C99.551,64.032 126.585,66.432 132.942,69.217Z"/>
            <path d="M137.103,69.442C136.485,80.871 131.57,100.229 108.736,118.256C92.577,131.013 83.341,147.674 81.012,159.589C80.693,161.225 79.429,162.512 77.8,162.863C76.171,163.214 74.489,162.56 73.525,161.201C63.498,147.07 53.289,119.515 76.248,88.505C97.988,59.14 127.688,62.366 134.614,65.401C136.205,66.098 137.197,67.708 137.103,69.442ZM128.483,72.217C119.814,70.489 98.971,71.818 82.945,93.464C66.759,115.326 69.441,135.198 75.683,148.427C80.315,136.585 89.544,122.791 103.573,111.715C121.62,97.467 127.157,82.408 128.483,72.217Z"/>
        </g>
    </g>
</svg>
